<?xml version="1.0" encoding="UTF-8" standalone="no"?>
<!-- Created with Inkscape (http://www.inkscape.org/) -->

<svg
   xmlns:dc="http://purl.org/dc/elements/1.1/"
   xmlns:cc="http://creativecommons.org/ns#"
   xmlns:rdf="http://www.w3.org/1999/02/22-rdf-syntax-ns#"
   xmlns:svg="http://www.w3.org/2000/svg"
   xmlns="http://www.w3.org/2000/svg"
   xmlns:sodipodi="http://sodipodi.sourceforge.net/DTD/sodipodi-0.dtd"
   xmlns:inkscape="http://www.inkscape.org/namespaces/inkscape"
   id="svg2"
   version="1.1"
   inkscape:version="0.48.4 r9939"
   width="571.20758"
   height="472.57313"
   xml:space="preserve"
   sodipodi:docname="plotclock-osaa-tweaks1.svg"><metadata
     id="metadata8"><rdf:RDF><cc:Work
         rdf:about=""><dc:format>image/svg+xml</dc:format><dc:type
           rdf:resource="http://purl.org/dc/dcmitype/StillImage" /><dc:title /></cc:Work></rdf:RDF></metadata><defs
     id="defs6" /><sodipodi:namedview
     pagecolor="#ffffff"
     bordercolor="#666666"
     borderopacity="1"
     objecttolerance="10"
     gridtolerance="10"
     guidetolerance="10"
     inkscape:pageopacity="0"
     inkscape:pageshadow="2"
     inkscape:window-width="1885"
     inkscape:window-height="1060"
     id="namedview4"
     showgrid="false"
     inkscape:snap-bbox="true"
     inkscape:bbox-paths="true"
     inkscape:bbox-nodes="true"
     inkscape:snap-bbox-edge-midpoints="true"
     inkscape:snap-bbox-midpoints="true"
     inkscape:object-paths="true"
     inkscape:snap-intersection-paths="true"
     inkscape:object-nodes="true"
     inkscape:snap-midpoints="true"
     inkscape:snap-smooth-nodes="true"
     inkscape:zoom="1.4124985"
     inkscape:cx="212.88999"
     inkscape:cy="201.84708"
     inkscape:window-x="33"
     inkscape:window-y="-3"
     inkscape:window-maximized="1"
     inkscape:current-layer="layer2"
     inkscape:document-units="mm" />

<g style="display:inline;photonsaw-speed:17;photonsaw-raster-pitch:0.1;photonsaw-raster-speed:700">


<g
     inkscape:groupmode="layer"
     id="layer1"
     inkscape:label="engrave"
     style="display:inline;photonsaw-raster-speed:100;photonsaw-raster-pitch:0.1"><path
       inkscape:connector-curvature="0"
       id="path44-4"
       style="fill:#000000;fill-opacity:1;stroke:none;display:inline"
       d="m 512.06321,444.88526 c -0.3075,4.44375 -2.62125,8.78875 -6.49875,11.09875 -5.34125,3.37375 -13.08625,2.5 -17.28,-2.305 -2.3,-2.66625 -3.81875,-6.1375 -3.58875,-9.71125 0.0238,-1.7575 0.25375,-3.535 1.1375,-5.07375 0.97625,-1.99625 0.63,-4.32125 0.9625,-6.465 1.18125,-13.16875 2.12375,-26.3625 3.52,-39.51125 0.81,-4.03375 5,-6.9675 9.09125,-6.3725 3.8775,0.43 6.94875,3.95 7.16875,7.79375 0.47875,6.7575 1.20625,13.5 1.7725,20.25875 0.6925,7.74375 1.38625,15.4875 2.08,23.2325 1.01,2.1825 1.71875,4.60375 1.635,7.055 z" /><path
       inkscape:connector-curvature="0"
       id="path44"
       style="fill:#000000;fill-opacity:1;stroke:none;display:inline"
       d="m 557.27653,446.36801 c -0.3075,4.44375 -2.62125,8.78875 -6.49875,11.09875 -5.34125,3.37375 -13.08625,2.5 -17.28,-2.305 -2.3,-2.66625 -3.81875,-6.1375 -3.58875,-9.71125 0.0238,-1.7575 0.25375,-3.535 1.1375,-5.07375 0.97625,-1.99625 0.63,-4.32125 0.9625,-6.465 1.18125,-13.16875 2.12375,-26.3625 3.52,-39.51125 0.81,-4.03375 5,-6.9675 9.09125,-6.3725 3.8775,0.43 6.94875,3.95 7.16875,7.79375 0.47875,6.7575 1.20625,13.5 1.7725,20.25875 0.6925,7.74375 1.38625,15.4875 2.08,23.2325 1.01,2.1825 1.71875,4.60375 1.635,7.055 z" /></g><g
     inkscape:groupmode="layer"
     id="layer2"
     inkscape:label="holes"
     style="display:inline"><g
       transform="matrix(0,-1.25,-1.25,0,0,5e-6)"
       id="g30"
       style="fill:none;stroke:#000000;stroke-width:0.80000001;stroke-miterlimit:4.33333349;stroke-opacity:1;stroke-dasharray:none"><path
         inkscape:connector-curvature="0"
         id="path32"
         style="fill:none;stroke:#000000;stroke-width:0.80000001;stroke-linecap:round;stroke-linejoin:round;stroke-miterlimit:4.33333349;stroke-opacity:1;stroke-dasharray:none"
         d="m -261.836,-433.871 -0.242,-1.082 0.242,-1.078 0.359,-1.082 0.719,-0.84 0.84,-0.719 0.961,-0.359 1.078,-0.121 1.203,0.121 0.957,0.359 0.84,0.719 0.723,0.84 0.359,1.082 0.238,1.078 -0.238,1.082 -0.359,0.961 -0.723,0.957 -0.84,0.601 -0.957,0.481 -1.203,0.117 -1.078,-0.117 -0.961,-0.481 -0.84,-0.601 -0.719,-0.957 -0.359,-0.961 z" /></g><g
       transform="matrix(0,-1.25,-1.25,0,0,5e-6)"
       id="g36"
       style="fill:none;stroke:#d20000;stroke-width:0.80000001;stroke-miterlimit:4.33333349;stroke-opacity:1;stroke-dasharray:none"><path
         inkscape:connector-curvature="0"
         id="path38"
         style="fill:none;stroke:#d20000;stroke-width:0.80000001;stroke-linecap:round;stroke-linejoin:round;stroke-miterlimit:4.33333349;stroke-opacity:1;stroke-dasharray:none"
         d="m -356.914,-428.469 -1.676,0 -1.668,-0.832 -1.398,-1.117 -1.114,-1.113 -0.554,-1.668 -0.281,-1.676 0.281,-1.668 0.554,-1.668 1.114,-1.398 1.398,-1.114 1.668,-0.554 1.676,-0.282 1.668,0.282 1.668,0.554 1.113,1.114 1.117,1.398 0.832,1.668 0,3.344 -0.832,1.668 -2.23,2.23 -1.668,0.832 -1.668,0 z" /></g><g
       transform="matrix(0,-1.25,-1.25,0,0,5e-6)"
       id="g46"
       style="fill:none;stroke:#d30000;stroke-width:0.80000001;stroke-miterlimit:4.33333349;stroke-opacity:1;stroke-dasharray:none"><path
         inkscape:connector-curvature="0"
         id="path48"
         style="fill:none;stroke:#d30000;stroke-width:0.80000001;stroke-linecap:round;stroke-linejoin:round;stroke-miterlimit:4.33333349;stroke-opacity:1;stroke-dasharray:none"
         d="m -355.141,-405.078 1.59,0.269 1.594,0.528 1.336,1.066 0.797,1.332 0.797,1.594 0.269,1.601 -0.269,1.594 -0.797,1.594 -0.797,1.336 -1.336,0.797 -1.594,0.797 -3.195,0 -1.594,-0.797 -1.332,-0.797 -1.066,-1.336 -0.528,-1.594 -0.269,-1.594 0.269,-1.601 0.528,-1.594 1.066,-1.332 1.332,-1.066 1.594,-0.528 1.605,-0.269 z" /></g><g
       transform="matrix(0,-1.25,-1.25,0,0,5e-6)"
       id="g50"
       style="fill:none;stroke:#000000;stroke-width:0.80000001;stroke-miterlimit:4.33333349;stroke-opacity:1;stroke-dasharray:none"><path
         inkscape:connector-curvature="0"
         id="path52"
         style="fill:none;stroke:#000000;stroke-width:0.80000001;stroke-linecap:round;stroke-linejoin:round;stroke-miterlimit:4.33333349;stroke-opacity:1;stroke-dasharray:none"
         d="m -253.508,-401.285 0.602,0.722 0.359,0.84 0.121,0.961 -0.121,0.84 -0.359,0.84 -0.602,0.719 -0.719,0.601 -0.839,0.36 -0.84,0.117 -0.961,-0.117 -0.84,-0.36 -0.719,-0.601 -0.601,-0.719 -0.239,-0.84 -0.121,-0.84 0.121,-0.961 0.239,-0.84 0.601,-0.722 0.719,-0.477 0.84,-0.363 0.961,-0.117 0.84,0.117 0.839,0.363 0.719,0.477 z" /></g><g
       transform="matrix(0,-1.25,-1.25,0,0,5e-6)"
       id="g58"
       style="fill:none;stroke:#000000;stroke-width:0.80000001;stroke-miterlimit:4.33333349;stroke-opacity:1;stroke-dasharray:none"><path
         inkscape:connector-curvature="0"
         id="path60"
         style="fill:none;stroke:#000000;stroke-width:0.80000001;stroke-linecap:round;stroke-linejoin:round;stroke-miterlimit:4.33333349;stroke-opacity:1;stroke-dasharray:none"
         d="m -194.594,-397.813 -0.719,0.485 -0.839,0.359 -0.961,0.121 -0.84,-0.121 -0.84,-0.359 -0.719,-0.485 -0.601,-0.718 -0.36,-0.836 -0.121,-0.961 0.121,-0.84 0.36,-0.84 0.601,-0.726 0.719,-0.594 0.84,-0.363 0.84,-0.122 0.961,0.122 0.839,0.363 0.719,0.594 0.602,0.726 0.238,0.84 0.121,0.84 -0.121,0.961 -0.238,0.836 -0.602,0.718 z" /></g><g
       transform="matrix(0,-1.25,-1.25,0,0,5e-6)"
       id="g62"
       style="fill:none;stroke:#000000;stroke-width:0.80000001;stroke-miterlimit:4.33333349;stroke-opacity:1;stroke-dasharray:none"><path
         inkscape:connector-curvature="0"
         id="path64"
         style="fill:none;stroke:#000000;stroke-width:0.80000001;stroke-linecap:round;stroke-linejoin:round;stroke-miterlimit:4.33333349;stroke-opacity:1;stroke-dasharray:none"
         d="m -69.551,-396.848 -0.84,-0.121 -0.843,-0.359 -0.719,-0.485 -0.598,-0.718 -0.363,-0.836 -0.117,-0.961 0.117,-0.84 0.363,-0.84 0.598,-0.726 0.719,-0.594 0.843,-0.363 0.84,-0.122 0.957,0.122 0.84,0.363 0.723,0.594 0.597,0.726 0.243,0.84 0.117,0.84 -0.117,0.961 -0.243,0.836 -0.597,0.718 -0.723,0.485 -0.84,0.359 -0.957,0.121 z" /></g><g
       transform="matrix(0,-1.25,-1.25,0,0,5e-6)"
       id="g66"
       style="fill:none;stroke:#000000;stroke-width:0.80000001;stroke-miterlimit:4.33333349;stroke-opacity:1;stroke-dasharray:none"><path
         inkscape:connector-curvature="0"
         id="path68"
         style="fill:none;stroke:#000000;stroke-width:0.80000001;stroke-linecap:round;stroke-linejoin:round;stroke-miterlimit:4.33333349;stroke-opacity:1;stroke-dasharray:none"
         d="m -178,-439.508 0.84,0.598 0.722,0.961 0.36,0.961 0.238,1.078 -0.238,1.086 -0.36,1.078 -0.722,0.836 -0.84,0.605 -0.957,0.481 -1.082,0.117 -1.199,-0.117 -0.961,-0.481 -0.84,-0.605 -0.719,-0.836 -0.359,-1.078 -0.242,-1.086 0.242,-1.078 0.359,-0.961 0.719,-0.961 0.84,-0.598 0.961,-0.48 1.199,-0.121 1.082,0.121 0.957,0.48 z" /></g><g
       transform="matrix(0,-1.25,-1.25,0,0,5e-6)"
       id="g70"
       style="fill:none;stroke:#000000;stroke-width:0.80000001;stroke-miterlimit:4.33333349;stroke-opacity:1;stroke-dasharray:none"><path
         inkscape:connector-curvature="0"
         id="path72"
         style="fill:none;stroke:#000000;stroke-width:0.80000001;stroke-linecap:round;stroke-linejoin:round;stroke-miterlimit:4.33333349;stroke-opacity:1;stroke-dasharray:none"
         d="m -54.637,-432.305 -0.84,-0.605 -0.722,-0.836 -0.36,-1.078 -0.238,-1.086 0.238,-1.078 0.36,-0.961 0.722,-0.961 0.84,-0.598 0.957,-0.48 1.203,-0.121 1.079,0.121 0.96,0.48 0.84,0.598 0.719,0.961 0.359,0.961 0.243,1.078 -0.243,1.086 -0.359,1.078 -0.719,0.836 -0.84,0.605 -0.96,0.481 -1.079,0.117 -1.203,-0.117 -0.957,-0.481 z" /></g><path
       sodipodi:type="arc"
       style="fill:none;stroke:#000000;stroke-width:1;stroke-miterlimit:4.33333349;stroke-opacity:1;stroke-dasharray:none"
       id="path3866"
       sodipodi:cx="339.70886"
       sodipodi:cy="188.65067"
       sodipodi:rx="4.2708044"
       sodipodi:ry="4.2708044"
       d="m 343.97967,188.65067 a 4.2708044,4.2708044 0 1 1 -8.54161,0 4.2708044,4.2708044 0 1 1 8.54161,0 z"
       transform="matrix(1.0253231,0,0,1.0253231,-9.267801,-2.2122825)" /><path
       sodipodi:type="arc"
       style="fill:none;stroke:#000000;stroke-width:1;stroke-miterlimit:4.33333349;stroke-opacity:1;stroke-dasharray:none"
       id="path3866-9"
       sodipodi:cx="339.70886"
       sodipodi:cy="188.65067"
       sodipodi:rx="4.2708044"
       sodipodi:ry="4.2708044"
       d="m 343.97967,188.65067 a 4.2708044,4.2708044 0 1 1 -8.54161,0 4.2708044,4.2708044 0 1 1 8.54161,0 z"
       transform="matrix(1.0253231,0,0,1.0253231,-9.3900938,97.07358)" /><path
       sodipodi:type="arc"
       style="fill:none;stroke:#000000;stroke-width:1;stroke-miterlimit:4.33333349;stroke-opacity:1;stroke-dasharray:none"
       id="path3866-1"
       sodipodi:cx="339.70886"
       sodipodi:cy="188.65067"
       sodipodi:rx="4.2708044"
       sodipodi:ry="4.2708044"
       d="m 343.97967,188.65067 a 4.2708044,4.2708044 0 1 1 -8.54161,0 4.2708044,4.2708044 0 1 1 8.54161,0 z"
       transform="matrix(1.2349685,0,0,1.2349685,-279.8328,191.59738)" /><rect
       style="fill:none;stroke:#000000;stroke-width:0.99673086;stroke-miterlimit:4.33333349;stroke-opacity:1;stroke-dasharray:none"
       id="rect3895"
       width="17.829563"
       height="10.589883"
       x="322.13272"
       y="346.88611" /><path
       sodipodi:type="arc"
       style="fill:none;stroke:#000000;stroke-width:1;stroke-miterlimit:4.33333349;stroke-opacity:1;stroke-dasharray:none"
       id="path3866-97"
       sodipodi:cx="339.70886"
       sodipodi:cy="188.65067"
       sodipodi:rx="4.2708044"
       sodipodi:ry="4.2708044"
       d="m 343.97967,188.65067 a 4.2708044,4.2708044 0 1 1 -8.54161,0 4.2708044,4.2708044 0 1 1 8.54161,0 z"
       transform="matrix(1.0253231,0,0,1.0253231,94.980951,251.09337)" /><path
       sodipodi:type="arc"
       style="fill:none;stroke:#000000;stroke-width:1;stroke-miterlimit:4.33333349;stroke-opacity:1;stroke-dasharray:none"
       id="path3866-0"
       sodipodi:cx="339.70886"
       sodipodi:cy="188.65067"
       sodipodi:rx="4.2708044"
       sodipodi:ry="4.2708044"
       d="m 343.97967,188.65067 a 4.2708044,4.2708044 0 1 1 -8.54161,0 4.2708044,4.2708044 0 1 1 8.54161,0 z"
       transform="matrix(0.62622065,0,0,0.62622065,221.61407,206.81253)" /><path
       sodipodi:type="arc"
       style="fill:none;stroke:#000000;stroke-width:1;stroke-miterlimit:4.33333349;stroke-opacity:1;stroke-dasharray:none"
       id="path3866-0-8"
       sodipodi:cx="339.70886"
       sodipodi:cy="188.65067"
       sodipodi:rx="4.2708044"
       sodipodi:ry="4.2708044"
       d="m 343.97967,188.65067 a 4.2708044,4.2708044 0 1 1 -8.54161,0 4.2708044,4.2708044 0 1 1 8.54161,0 z"
       transform="matrix(0.62622065,0,0,0.62622065,221.61407,109.33619)" /><path
       sodipodi:type="arc"
       style="fill:none;stroke:#000000;stroke-width:1;stroke-miterlimit:4.33333349;stroke-opacity:1;stroke-dasharray:none"
       id="path3866-97-2"
       sodipodi:cx="339.70886"
       sodipodi:cy="188.65067"
       sodipodi:rx="4.2708044"
       sodipodi:ry="4.2708044"
       d="m 343.97967,188.65067 a 4.2708044,4.2708044 0 1 1 -8.54161,0 4.2708044,4.2708044 0 1 1 8.54161,0 z"
       transform="matrix(1.2468376,0,0,1.244875,21.635722,-145.00011)" /><path
       sodipodi:type="arc"
       style="fill:none;stroke:#000000;stroke-width:1;stroke-miterlimit:4.33333349;stroke-opacity:1;stroke-dasharray:none"
       id="path3866-97-2-2"
       sodipodi:cx="339.70886"
       sodipodi:cy="188.65067"
       sodipodi:rx="4.2708044"
       sodipodi:ry="4.2708044"
       d="m 343.97967,188.65067 a 4.2708044,4.2708044 0 1 1 -8.54161,0 4.2708044,4.2708044 0 1 1 8.54161,0 z"
       transform="matrix(1.2468376,0,0,1.244875,-27.861782,-207.024)" /><path
       sodipodi:type="arc"
       style="fill:none;stroke:#000000;stroke-width:1;stroke-miterlimit:4.33333349;stroke-opacity:1;stroke-dasharray:none"
       id="path3866-97-2-5"
       sodipodi:cx="339.70886"
       sodipodi:cy="188.65067"
       sodipodi:rx="4.2708044"
       sodipodi:ry="4.2708044"
       d="m 343.97967,188.65067 a 4.2708044,4.2708044 0 1 1 -8.54161,0 4.2708044,4.2708044 0 1 1 8.54161,0 z"
       transform="matrix(0.69541919,0,0,0.67658455,118.88244,-107.99)" /><path
       sodipodi:type="arc"
       style="fill:none;stroke:#000000;stroke-width:1;stroke-miterlimit:4.33333349;stroke-opacity:1;stroke-dasharray:none"
       id="path3866-97-2-5-2"
       sodipodi:cx="339.70886"
       sodipodi:cy="188.65067"
       sodipodi:rx="4.2708044"
       sodipodi:ry="4.2708044"
       d="m 343.97967,188.65067 a 4.2708044,4.2708044 0 1 1 -8.54161,0 4.2708044,4.2708044 0 1 1 8.54161,0 z"
       transform="matrix(0.69541919,0,0,0.67658455,118.88244,-10.563123)" /><path
       sodipodi:type="arc"
       style="fill:none;stroke:#000000;stroke-width:1;stroke-miterlimit:4.33333349;stroke-opacity:1;stroke-dasharray:none"
       id="path3866-97-2-5-9"
       sodipodi:cx="339.70886"
       sodipodi:cy="188.65067"
       sodipodi:rx="4.2708044"
       sodipodi:ry="4.2708044"
       d="m 343.97967,188.65067 a 4.2708044,4.2708044 0 1 1 -8.54161,0 4.2708044,4.2708044 0 1 1 8.54161,0 z"
       transform="matrix(0.69541919,0,0,0.67658455,-199.41881,-86.314373)" /><path
       sodipodi:type="arc"
       style="fill:none;stroke:#000000;stroke-width:1;stroke-miterlimit:4.33333349;stroke-opacity:1;stroke-dasharray:none"
       id="path3866-97-2-5-0"
       sodipodi:cx="339.70886"
       sodipodi:cy="188.65067"
       sodipodi:rx="4.2708044"
       sodipodi:ry="4.2708044"
       d="m 343.97967,188.65067 a 4.2708044,4.2708044 0 1 1 -8.54161,0 4.2708044,4.2708044 0 1 1 8.54161,0 z"
       transform="matrix(0.69541919,0,0,0.67658455,-101.91881,-86.314373)" /><path
       sodipodi:type="arc"
       style="fill:none;stroke:#000000;stroke-width:1;stroke-miterlimit:4.33333349;stroke-opacity:1;stroke-dasharray:none"
       id="path3866-97-2-5-7"
       sodipodi:cx="339.70886"
       sodipodi:cy="188.65067"
       sodipodi:rx="4.2708044"
       sodipodi:ry="4.2708044"
       d="m 343.97967,188.65067 a 4.2708044,4.2708044 0 1 1 -8.54161,0 4.2708044,4.2708044 0 1 1 8.54161,0 z"
       transform="matrix(0.63219926,0,0,0.61507686,-190.69119,7.9403425)" /><path
       sodipodi:type="arc"
       style="fill:none;stroke:#000000;stroke-width:1;stroke-miterlimit:4.33333349;stroke-opacity:1;stroke-dasharray:none"
       id="path3866-97-2-5-3"
       sodipodi:cx="339.70886"
       sodipodi:cy="188.65067"
       sodipodi:rx="4.2708044"
       sodipodi:ry="4.2708044"
       d="m 343.97967,188.65067 a 4.2708044,4.2708044 0 1 1 -8.54161,0 4.2708044,4.2708044 0 1 1 8.54161,0 z"
       transform="matrix(0.63219926,0,0,0.61507686,-93.342441,7.8640925)" /><path
       sodipodi:type="arc"
       style="fill:none;stroke:#000000;stroke-width:1;stroke-miterlimit:4.33333349;stroke-opacity:1;stroke-dasharray:none"
       id="path3866-97-2-5-8"
       sodipodi:cx="339.70886"
       sodipodi:cy="188.65067"
       sodipodi:rx="4.2708044"
       sodipodi:ry="4.2708044"
       d="m 343.97967,188.65067 a 4.2708044,4.2708044 0 1 1 -8.54161,0 4.2708044,4.2708044 0 1 1 8.54161,0 z"
       transform="matrix(0.63219926,0,0,0.61507686,-60.939941,7.6378425)" /><path
       sodipodi:type="arc"
       style="fill:none;stroke:#000000;stroke-width:1;stroke-miterlimit:4.33333349;stroke-opacity:1;stroke-dasharray:none"
       id="path3866-97-2-5-37"
       sodipodi:cx="339.70886"
       sodipodi:cy="188.65067"
       sodipodi:rx="4.2708044"
       sodipodi:ry="4.2708044"
       d="m 343.97967,188.65067 a 4.2708044,4.2708044 0 1 1 -8.54161,0 4.2708044,4.2708044 0 1 1 8.54161,0 z"
       transform="matrix(0.63219926,0,0,0.61507686,36.408809,7.7128425)" /><path
       sodipodi:type="arc"
       style="fill:none;stroke:#000000;stroke-width:1;stroke-miterlimit:4.33333349;stroke-opacity:1;stroke-dasharray:none"
       id="path3866-97-2-2-0"
       sodipodi:cx="339.70886"
       sodipodi:cy="188.65067"
       sodipodi:rx="4.2708044"
       sodipodi:ry="4.2708044"
       d="m 343.97967,188.65067 a 4.2708044,4.2708044 0 1 1 -8.54161,0 4.2708044,4.2708044 0 1 1 8.54161,0 z"
       transform="matrix(1.2468376,0,0,1.244875,-286.61179,-111.17399)" /><path
       sodipodi:type="arc"
       style="fill:none;stroke:#000000;stroke-width:1;stroke-miterlimit:4.33333349;stroke-opacity:1;stroke-dasharray:none"
       id="path3866-97-2-2-9"
       sodipodi:cx="339.70886"
       sodipodi:cy="188.65067"
       sodipodi:rx="4.2708044"
       sodipodi:ry="4.2708044"
       d="m 343.97967,188.65067 a 4.2708044,4.2708044 0 1 1 -8.54161,0 4.2708044,4.2708044 0 1 1 8.54161,0 z"
       transform="matrix(1.2305095,0,0,1.1921912,-398.06623,-183.58627)" /><rect
       style="fill:none;stroke:#000000;stroke-width:1;stroke-miterlimit:4.33333349;stroke-opacity:1;stroke-dasharray:none"
       id="rect4084"
       width="81.449997"
       height="42.451248"
       x="32.021252"
       y="102.67126"
       transform="translate(0,5e-6)" /><rect
       style="fill:none;stroke:#000000;stroke-width:1;stroke-miterlimit:4.33333349;stroke-opacity:1;stroke-dasharray:none"
       id="rect4086"
       width="81.449997"
       height="42.598751"
       x="161.77251"
       y="102.37251"
       transform="translate(0,5e-6)" /><rect
       style="fill:none;stroke:#000000;stroke-width:1;stroke-miterlimit:4.33333349;stroke-opacity:1;stroke-dasharray:none;display:inline"
       id="rect4075"
       width="81.449997"
       height="42.446251"
       x="44.922501"
       y="20.025005"
       transform="translate(0,5e-6)" /><path
       sodipodi:type="arc"
       style="fill:none;stroke:#000000;stroke-width:0.35433072;stroke-miterlimit:4;stroke-opacity:1;stroke-dasharray:none;display:inline"
       id="path3035"
       sodipodi:cx="-305.84103"
       sodipodi:cy="124.96214"
       sodipodi:rx="16.991169"
       sodipodi:ry="16.283203"
       d="m -288.84986,124.96214 a 16.991169,16.283203 0 1 1 -33.98234,0 16.991169,16.283203 0 1 1 33.98234,0 z"
       transform="matrix(0.60870415,0,0,0.63516957,696.79603,-47.456071)" /><path
       style="fill:none;stroke:#000000;stroke-width:0.22771966;stroke-miterlimit:4;stroke-opacity:1;display:inline"
       d="m 493.90914,11.090583 16.60632,21.24354 0,0 -22.20336,-15.166548 z"
       id="rect3043"
       inkscape:connector-curvature="0"
       sodipodi:nodetypes="ccccc" /><rect
       style="fill:none;stroke:#000000;stroke-width:0.14928296;stroke-miterlimit:4;stroke-opacity:1;stroke-dasharray:none;display:inline"
       id="rect3305"
       width="10.653764"
       height="13.949982"
       x="131.62125"
       y="92.021255" /><rect
       style="fill:none;stroke:#000000;stroke-width:0.15166511;stroke-miterlimit:4;stroke-opacity:1;stroke-dasharray:none;display:inline"
       id="rect3305-4"
       width="10.653751"
       height="14.398754"
       x="131.62125"
       y="141.3725" /><text
       xml:space="preserve"
       style="font-size:6px;font-style:normal;font-weight:normal;line-height:125%;letter-spacing:0px;word-spacing:0px;fill:#000000;fill-opacity:1;stroke:none;font-family:Sans"
       x="488.09192"
       y="340.91345"
       id="text6809"
       sodipodi:linespacing="125%"><tspan
         sodipodi:role="line"
         id="tspan6811"
         x="488.09192"
         y="340.91345" /></text>
<text
       xml:space="preserve"
       style="font-size:12.37016106px;font-style:normal;font-weight:normal;line-height:125%;letter-spacing:0px;word-spacing:0px;fill:#000000;fill-opacity:1;stroke:none;font-family:Sans"
       x="-334.13681"
       y="416.2905"
       id="text6889"
       sodipodi:linespacing="125%"
       transform="scale(-1,1)"><tspan
         sodipodi:role="line"
         id="tspan6891"
         x="-334.13681"
         y="416.2905">Open Space Aarhus</tspan><tspan
         sodipodi:role="line"
         x="-334.13681"
         y="431.7532"
         id="tspan6893">MiniMakerfaire Aarhus 2014</tspan><tspan
         sodipodi:role="line"
         x="-334.13681"
         y="447.21591"
         id="tspan6895">PlotClock Version 1</tspan></text>
<path
       sodipodi:type="arc"
       style="fill:none;stroke:#d20000;stroke-width:0.35433072;stroke-miterlimit:4;stroke-opacity:1;stroke-dasharray:none"
       id="path31679"
       sodipodi:cx="644.24847"
       sodipodi:cy="164.60818"
       sodipodi:rx="20.530994"
       sodipodi:ry="20.530994"
       d="m 664.77947,164.60818 a 20.530994,20.530994 0 1 1 -41.06199,0 20.530994,20.530994 0 1 1 41.06199,0 z"
       transform="translate(-240.00024,213.23309)" /></g><g
     inkscape:groupmode="layer"
     id="layer3"
     inkscape:label="cut"
     style="display:inline"><path
       d="m 367.379,124.5585 -36.84,0 0,65.16 36.84,0 0,72.242 -19.801,0 0,-8.519 -9.961,0 0,-11.281 3.602,0 0,-7.68 -3.602,0 -0.008,-21.50929 -8.51142,0 0,21.50929 -3.481,0 0,7.68 3.481,0 0,11.281 -9.84,0 0,8.519 -17.039,0 0,-144.48 -8.52,0 0,-25.270873 37.76955,8.3e-4 0,-88.9538085 35.93258,0 z"
       style="fill:none;stroke:#000000;stroke-width:0.80000001;stroke-linecap:round;stroke-linejoin:round;stroke-miterlimit:4.33333349;stroke-opacity:1;stroke-dasharray:none;display:inline"
       id="path16"
       inkscape:connector-curvature="0"
       sodipodi:nodetypes="ccccccccccccccccccccccccccccc"
       transform="matrix(1.25,0,0,-1.25,0,472.57313)" /><path
       style="fill:none;stroke:#000000;stroke-width:1;stroke-linecap:round;stroke-linejoin:round;stroke-miterlimit:4.33333349;stroke-opacity:1;stroke-dasharray:none;display:inline"
       d="m 225.375,5.03125 -9.75,1.1875 -9.15625,3.75 -7.34375,5.71875 2.09375,2.84375 10.65625,0.75 6.4375,-2.71875 7.0625,-0.875 6.90625,0.875 6.4375,2.71875 5.71875,4.34375 50.375,11.40625 -11.6875,0 0,18.28125 -38.6875,8.40625 -5.71875,4.21875 -6.4375,2.6875 -6.90625,0.90625 -7.0625,-0.90625 -6.4375,-2.6875 -10.65625,0.75 -2.09375,2.84375 7.34375,5.6875 9.15625,3.75 9.75,1.34375 9.75,-1.34375 9,-3.75 7.5,-5.6875 31.5,-4.5 0,13.03125 1.8125,0 0,10.65625 -2.40625,0 2.40625,6.3125 7.03125,0 0,-45 3.59375,0 0,45 7.0625,0 2.53125,-6.3125 -2.53125,0 0,-10.65625 1.8125,0 0,-34.03125 -12,0 0,-1.5 12,0 0,-16.96875 -52.8125,-9.875 -7.5,-5.71875 -9,-3.75 -9.75,-1.1875 z M 25.4375,9.375 l 0,14.25 -10.65625,0 0,35.40625 10.65625,0 0,14.09375 122.21875,0 0,-63.75 -122.21875,0 z M 12.625,82.125 c -1.108,0 -2,0.892 -2,2 l 0,14.40625 c 0,0.20775 0.03549,0.405644 0.09375,0.59375 l 0,48.84375 c -0.05826,0.18811 -0.09375,0.386 -0.09375,0.59375 l 0,14.40625 c 0,1.108 0.892,2 2,2 l 249.90625,0 c 1.108,0 2,-0.892 2,-2 l 0,-7.1875 0,-7.21875 0,-50.03125 0,-14.40625 c 0,-1.108 -0.892,-2 -2,-2 l -249.90625,0 z"
       id="path28"
       inkscape:connector-curvature="0" /><g
       transform="matrix(0,-1.25,-1.25,0,0,5e-6)"
       id="g40"
       style="fill:none;stroke:#000000;stroke-width:0.80000001;stroke-miterlimit:4.33333349;stroke-opacity:1;stroke-dasharray:none;display:inline"><path
         inkscape:connector-curvature="0"
         id="path42"
         style="fill:none;stroke:#000000;stroke-width:0.80000001;stroke-linecap:round;stroke-linejoin:round;stroke-miterlimit:4.33333349;stroke-opacity:1;stroke-dasharray:none"
         d="m -373.438,-439.391 1.68,-4.082 2.762,-3.48 3.476,-2.758 4.082,-1.68 4.442,-0.601 4.32,0.601 4.199,1.68 3.481,2.758 75.117,0 3.602,-2.758 4.078,-1.68 4.32,-0.601 4.441,0.601 4.079,1.68 3.601,2.758 2.641,3.48 1.679,4.082 0.602,4.438 -0.602,4.32 -1.679,4.199 -2.641,3.481 -3.601,2.762 -4.079,1.679 -4.441,0.602 -4.32,-0.602 -4.078,-1.679 -3.602,-2.762 -75.117,0 -3.481,2.762 -4.199,1.679 -4.32,0.602 -4.442,-0.602 -4.082,-1.679 -3.476,-2.762 -2.762,-3.481 -1.68,-4.199 -0.601,-4.32 0.601,-4.438 z" /></g><g
       transform="matrix(0,-1.25,-1.25,0,0,5e-6)"
       id="g54"
       style="fill:none;stroke:#000000;stroke-width:0.80000001;stroke-miterlimit:4.33333349;stroke-opacity:1;stroke-dasharray:none;display:inline"><path
         inkscape:connector-curvature="0"
         id="path56"
         style="fill:none;stroke:#000000;stroke-width:0.80000001;stroke-linecap:round;stroke-linejoin:round;stroke-miterlimit:4.33333349;stroke-opacity:1;stroke-dasharray:none"
         d="m -371.586,-394.445 -0.602,-4.317 0.602,-4.441 1.68,-4.082 2.761,-3.477 3.477,-2.761 4.082,-1.68 4.441,-0.602 4.438,0.602 4.082,1.68 3.48,2.761 75.118,0 3.601,-2.761 4.078,-1.68 4.442,-0.602 4.32,0.602 4.199,1.68 3.481,2.761 2.64,3.477 1.801,4.082 0.481,4.441 -0.481,4.317 -1.801,4.203 -2.64,3.48 -3.481,2.758 -4.199,1.68 -4.32,0.601 -4.442,-0.601 -4.078,-1.68 -3.601,-2.758 -75.118,0 -3.48,2.758 -4.082,1.68 -4.438,0.601 -4.441,-0.601 -4.082,-1.68 -3.477,-2.758 -2.761,-3.48 -1.68,-4.203 z" /></g><g
       transform="matrix(0,-1.25,-1.25,0,0,5e-6)"
       id="g74"
       style="fill:none;stroke:#000000;stroke-width:0.80000001;stroke-miterlimit:4.33333349;stroke-opacity:1;stroke-dasharray:none;display:inline"><path
         style="fill:none;stroke:#000000;stroke-width:1;stroke-linecap:round;stroke-linejoin:round;stroke-miterlimit:4.33333349;stroke-opacity:1;stroke-dasharray:none"
         d="m 510.625,5.25 c -14.82212,0 -26.84375,12.021631 -26.84375,26.84375 0,14.822118 12.02163,26.84375 26.84375,26.84375 3.55252,0 6.9592,-0.715059 10.0625,-1.96875 l 3.65625,3.21875 -0.75,5.40625 0.75,5.5625 2.09375,5.09375 3.4375,4.5 0,129.3125 -3.4375,4.46875 -2.09375,5.125 -0.75,5.40625 0.75,5.53125 2.09375,5.09375 3.4375,4.5 4.34375,3.3125 5.125,2.09375 5.53125,0.75 5.5625,-0.75 5.09375,-2.09375 4.34375,-3.3125 3.46875,-4.5 2.09375,-5.09375 0.75,-5.53125 -0.75,-5.40625 -2.09375,-5.125 -3.46875,-4.46875 0,-129.3125 3.46875,-4.5 2.09375,-5.09375 0.75,-5.5625 -0.75,-5.40625 -2.09375,-5.09375 -3.46875,-4.5 -4.34375,-3.28125 -5.09375,-2.125 -5.5625,-0.75 -5.53125,0.75 -3.71875,-3.28125 c 1.19681,-3.041885 1.84375,-6.345729 1.84375,-9.8125 C 537.46875,17.271631 525.44711,5.25 510.625,5.25 z"
         transform="matrix(0,-0.8,-0.8,0,4e-6,0)"
         id="path76"
         inkscape:connector-curvature="0" /></g><path
       transform="matrix(1.25,0,0,-1.25,0,472.57313)"
       d="m 388.328,168.9455 3.485,-2.641 4.078,-1.797 4.437,-0.48 4.445,0.48 4.075,1.797 3.48,2.641 2.762,3.48 1.683,4.199 0.594,4.321 -0.594,4.441 -1.683,4.078 -2.762,3.481 0,103.562 2.762,3.477 1.683,4.203 0.594,4.32 -0.594,4.438 -1.683,4.082 -2.762,3.48 -3.48,2.758 -4.075,1.68 -4.445,0.601 -4.437,-0.601 -4.078,-1.68 -3.485,-2.758 -2.754,-3.48 -1.683,-4.082 -0.602,-4.438 0.602,-4.32 1.683,-4.203 2.754,-3.477 0,-103.562 -2.754,-3.481 -1.683,-4.078 -0.602,-4.441 0.602,-4.321 1.683,-4.199 2.754,-3.48 z"
       style="fill:none;stroke:#000000;stroke-width:0.80000001;stroke-linecap:round;stroke-linejoin:round;stroke-miterlimit:4.33333349;stroke-opacity:1;stroke-dasharray:none;display:inline"
       id="path80"
       inkscape:connector-curvature="0" /><path
       style="fill:none;stroke:#000000;stroke-width:0.38476628;stroke-miterlimit:4;stroke-opacity:1;stroke-dasharray:none;display:inline"
       d="m 17.46875,174.6875 0,10.625 -10.65625,0 0,180.75 129.3125,0 0,-10.625 10.65625,0 0,10.625 108,0 0,-120.4375 53.25,0 0,-70.9375 -55.0625,0 0,10.625 -10.5,0 0,-10.625 z M 339.03125,176 c -8.40633,0 -15.21875,6.81242 -15.21875,15.21875 0,3.71003 1.35678,7.109 3.5625,9.75 l 0,79.625 c -2.28416,2.66232 -3.6875,6.12325 -3.6875,9.90625 0,8.40633 6.81242,15.21875 15.21875,15.21875 8.40633,0 15.25,-6.81242 15.25,-15.21875 0,-3.6939 -1.34273,-7.08267 -3.53125,-9.71875 l 0,-79.71875 c 2.25763,-2.65531 3.625,-6.08532 3.625,-9.84375 C 354.25,182.81242 347.43758,176 339.03125,176 z m 9.56223,292.34534 0.21902,-96.93909 c 5.29148,-4.82526 8.625,-11.77452 8.625,-19.5 0,-14.5716 -11.8034,-26.40625 -26.375,-26.40625 -8.82829,0 -16.64805,4.37274 -21.4375,11.03125 l -1.90443,3.00364 -1.50182,3.37136 c -1.0146,2.80315 -1.5625,5.8467 -1.5625,9 0,3.15251 0.54838,6.16619 1.5625,8.96875 l 0,24.6875 -54.90625,0 0,-10.625 -10.625,0 0,10.625 -95.71875,0 0,21.3125 -10.65625,0 0,-21.3125 -118.625,0 0,-10.625 -10.65625,0 0,92.09375 129.28125,0 0,-24.75 10.65625,0 0,24.75 203.62473,1.31409"
       id="path3262"
       inkscape:connector-curvature="0"
       sodipodi:nodetypes="cccccccccccccccccssccsssccssccsscccsccccccccccccccccccc" /><path
       style="fill:none;stroke:#000000;stroke-width:0.38476628;stroke-miterlimit:4;stroke-opacity:1;stroke-dasharray:none;display:inline"
       d="m 323.3125,8.1875 0,121.34375 0,0.90625 53.09375,0 0,-21.3125 -42.59375,0 0,-81.46875 42.59375,0 0,-19.46875 -53.09375,0 z m 72.375,4.40625 c -8.40633,0 -15.21875,6.812423 -15.21875,15.21875 l 0,10.65625 -32.6875,0 0,14.09375 21.28125,0 0,12.46875 14.125,0 0,-4.34375 9.59375,0 0,4.34375 16.375,0 0,10.625 -16.375,0.03125 0,4.34375 -9.59375,0 0,-4.34375 -14.125,0 0,12.4375 -21.28125,0 0,14.09375 88.5625,0 c 2.49503,1.78809 5.53998,2.84375 8.84375,2.84375 8.40633,0 15.21875,-6.812423 15.21875,-15.21875 0,-4.008839 -1.56064,-7.625298 -4.09375,-10.34375 l -4.90625,-41.03125 -40.4375,0 0,-10.65625 -0.0625,0 c 0,-8.406327 -6.81242,-15.21875 -15.21875,-15.21875 z"
       id="path3262-1"
       inkscape:connector-curvature="0" /></g><g
     inkscape:groupmode="layer"
     id="layer4"
     inkscape:label="panel"
     style="display:inline"><rect
       style="fill:none;stroke:#000000;stroke-width:0.35433072;stroke-miterlimit:4;stroke-opacity:1;stroke-dasharray:none;display:inline"
       id="rect3374"
       width="572.03601"
       height="472.92087"
       x="0"
       y="-0.34773609"
       rx="5"
       ry="5" /></g></g></svg>
